<svg xmlns="http://www.w3.org/2000/svg" class="icon icon-tabler icon-tabler-brand-bluesky" viewBox="0 0 24 24" stroke-width="2" stroke="currentColor" fill="none" stroke-linecap="round" stroke-linejoin="round">
   <path stroke="none" d="M0 0h24v24H0z" fill="none"></path>
   <path d="M 3.468 1.948 C 5.303 3.325 7.276 6.118 8 7.616 c 0.725 -1.498 2.697 -4.29 4.532 -5.668 C 13.855 0.955 16 0.186 16 2.632 c 0 0.489 -0.28 4.105 -0.444 4.692 c -0.572 2.04 -2.653 2.561 -4.504 2.246 c 3.236 0.551 4.06 2.375 2.281 4.2 c -3.376 3.464 -4.852 -0.87 -5.23 -1.98 c -0.07 -0.204 -0.103 -0.3 -0.103 -0.218 c 0 -0.081 -0.033 0.014 -0.102 0.218 c -0.379 1.11 -1.855 5.444 -5.231 1.98 c -1.778 -1.825 -0.955 -3.65 2.28 -4.2 c -1.85 0.315 -3.932 -0.205 -4.503 -2.246 C 0.28 6.737 0 3.12 0 2.632 C 0 0.186 2.145 0.955 3.468 1.948 Z"></path>
</svg>